# xmcd
# 
# Track frame offsets:
#     150
#     33293
#     59478
#     79548
#     103874
#     118224
#     138636
#     166390
# 
# Disc length: 2653
# 
# Revision: 2
# Processed by: cddbd v1.5.2PL0 Copyright (c) Steve Scherf et al.
# Submitted via: fre:ac v1.0.31
# 
DISCID=6c0a5b08
DTITLE=Sonny Landreth - Recorded Live In Lafayette (Acoustic and Electric Sets) Disc 2
DYEAR=2017
DGENRE=Blues
TTITLE0=Back To Bayou Teche
TTITLE1=True Blue
TTITLE2=The Milky Way Home
TTITLE3=Brave New Girl
TTITLE4=Überesso
TTITLE5=Soul Salvation
TTITLE6=Walkin' Blues
TTITLE7=The One And Only Truth
EXTD=
EXTT0=
EXTT1=
EXTT2=
EXTT3=
EXTT4=
EXTT5=
EXTT6=
EXTT7=
PLAYORDER=
